<svg xmlns="http://www.w3.org/2000/svg" baseProfile="full" height="256" version="1.1" viewBox="0 0 256 256" width="256"><defs /><polygon fill="none" points="35.2,47.09792284866469 31.200000000000003,52.79525222551929 30.400000000000002,58.87240356083086 30.400000000000002,209.66172106824928 31.200000000000003,215.35905044510386 34.0,219.91691394658756 36.800000000000004,222.1958456973294 42.400000000000006,224.09495548961425 204.8,224.09495548961425 211.60000000000002,221.43620178041544 214.4,218.7774480712166 216.8,212.70029673590506 216.8,55.07418397626113 214.4,49.37685459940653 210.4,45.95845697329377 204.8,44.439169139465875 43.2,44.439169139465875" stroke="#FF5500" stroke-linejoin="round" stroke-width="20" /><polygon fill="#FF5500" points="66.400,88.878 66.400,180.036 67.200,180.795 76.000,180.795 78.800,178.896 123.600,135.596 169.600,180.036 171.200,180.795 179.600,180.795 180.800,179.656 180.800,88.878 179.600,87.739 162.800,87.739 161.600,88.878 161.200,146.231 124.800,111.288 121.200,112.047 86.400,146.231 86.000,89.258 84.400,87.739 67.600,87.739" stroke="none" /></svg>